<svg width="240" height="39" viewBox="0 0 240 39" fill="none" xmlns="http://www.w3.org/2000/svg">
<path d="M27.9674 0.878913C20.2424 0.874913 12.1824 2.61491 4.04745 4.87191C3.01445 5.07991 2.00645 5.75591 1.47345 6.59191C0.98345 7.37991 0.80545 8.17091 0.65245 8.99991C-0.13755 13.4279 -0.0415503 17.7759 0.12245 22.5939C0.15845 23.6969 0.32245 25.0039 0.83745 25.7989C1.37545 26.6019 2.29745 27.1119 3.39845 27.2789C4.80505 27.4852 6.21607 27.6603 7.63045 27.8039L7.31845 36.5019C7.27045 37.1939 7.60845 37.7689 8.02845 38.0999C8.40445 38.3859 8.82345 38.5129 9.25345 38.5449C10.1135 38.6099 11.1225 38.2419 11.6235 37.2879C13.8185 33.0639 15.1955 31.1989 17.9405 28.3929C25.0985 28.5689 31.3475 28.1709 38.4225 27.6479C40.9235 27.5829 42.6405 25.5379 43.0945 23.9049C44.4515 19.6729 44.6624 14.4489 44.8064 9.16791C44.8674 7.07491 44.1414 5.01991 42.8564 3.93391C41.6344 2.94291 40.1545 2.58391 38.7985 2.21591C35.0315 1.36291 31.2634 0.904913 27.9674 0.878913ZM38.2575 4.18891C39.6155 4.55791 40.8125 4.91291 41.5675 5.52591C42.8275 6.86491 42.7854 7.75591 42.7674 9.20091C42.6254 14.3229 42.3794 19.2939 41.2234 23.0609C40.7254 24.4659 39.8574 25.4659 38.2174 25.6169C31.0094 26.1499 24.7555 26.5619 17.5105 26.3559C17.3694 26.3514 17.2289 26.3759 17.0976 26.4278C16.9664 26.4798 16.8472 26.5581 16.7474 26.6579C13.7034 29.7319 12.1465 31.8679 9.82645 36.3339C9.77245 36.4359 9.65545 36.4979 9.51145 36.5089C9.41445 36.5039 9.37545 36.4289 9.36945 36.3609L9.68345 26.9289C9.70245 26.4199 9.28245 25.9339 8.77645 25.8789C7.08457 25.7173 5.3973 25.5106 3.71645 25.2589C2.99045 25.1479 2.72245 24.9489 2.52345 24.6529C2.17745 23.8279 2.18545 23.3179 2.15845 22.5249C1.99645 17.7499 1.91645 13.5769 2.64945 9.42491C2.71745 8.81091 2.94745 8.18291 3.19145 7.65791C3.59545 7.02591 4.21445 6.93291 4.83545 6.76091C12.7914 4.56391 20.5754 2.92091 27.9035 2.91591C31.4955 3.04591 35.2675 3.40591 38.2575 4.18891V4.18891ZM10.7785 12.2789C9.68245 13.5919 9.79145 15.3749 10.6384 16.5689C11.0804 17.1939 11.7704 17.6969 12.6104 17.8109C13.7014 17.9009 14.3935 17.4589 15.1405 16.9509C16.4935 15.7749 16.6305 13.7229 15.6014 12.2409C15.0774 11.4859 14.2395 11.0329 13.3835 11.0009C12.2115 11.0129 11.4155 11.5359 10.7785 12.2779V12.2789ZM22.6345 11.2069C21.5425 11.2419 20.6595 11.9979 20.1205 12.8139C19.5035 13.7469 19.1435 14.9149 19.6425 16.0599C20.6025 18.2629 23.9195 18.2359 25.2425 15.9969C25.8525 14.9649 25.6965 13.7919 25.2425 12.9409C24.7905 12.0909 24.1065 11.3979 23.1115 11.2389C22.9538 11.213 22.7941 11.2023 22.6345 11.2069V11.2069ZM32.2594 11.4139C31.9194 11.4059 31.5694 11.4379 31.2414 11.5249C29.9294 11.8749 28.8125 13.2289 28.9815 14.9619C29.0675 15.8339 29.4685 16.6839 30.1915 17.2699C30.9145 17.8549 31.9644 18.1169 33.0714 17.8899C34.3434 17.6299 35.1315 16.6049 35.3945 15.6149C35.6575 14.6249 35.5914 13.6159 34.9804 12.7979C34.6625 12.3752 34.2522 12.0307 33.7808 11.7908C33.3093 11.551 32.7893 11.422 32.2604 11.4139H32.2594ZM13.2944 13.0369C13.5394 13.0389 13.7324 13.1169 13.9314 13.4029C14.3764 14.0449 14.2525 15.0179 13.8035 15.4079C13.3565 15.7979 13.0774 15.8319 12.8814 15.8059C12.6854 15.7789 12.4864 15.6439 12.3084 15.3919C11.9684 14.9119 11.8684 14.1359 12.3154 13.5819C12.5534 13.2659 12.9905 13.0689 13.2955 13.0369H13.2944ZM22.7775 13.2599C22.8155 13.2659 23.2414 13.5129 23.4454 13.8959C23.6494 14.2789 23.6875 14.6349 23.4935 14.9619C22.9165 15.9379 21.6895 15.6739 21.5035 15.2489C21.4335 15.0869 21.4865 14.4359 21.8235 13.9289C22.1585 13.4199 22.5805 13.2289 22.7775 13.2589V13.2599ZM33.3414 14.0079C33.4034 14.0909 33.5545 14.6479 33.4375 15.0899C33.3195 15.5319 33.1275 15.8049 32.6575 15.9009C32.0555 16.0249 31.7175 15.9009 31.4645 15.6939C31.2105 15.4889 31.0395 15.1419 31.0025 14.7709C30.9125 13.8509 31.2425 13.6379 31.7665 13.4979C32.3765 13.3479 33.0664 13.6099 33.3414 14.0079V14.0079Z" fill="white"/>
<path d="M57.6104 4.99626C57.6264 4.73626 57.7214 4.50226 57.8974 4.29526C57.983 4.19378 58.0906 4.11313 58.2121 4.05942C58.3336 4.00571 58.4656 3.98035 58.5984 3.98526H65.4244C65.6544 3.98526 65.8914 4.08126 66.1364 4.27226C66.2512 4.35468 66.3445 4.46345 66.4085 4.58944C66.4726 4.71542 66.5054 4.85494 66.5043 4.99626V15.8893H77.9254V4.99626C77.9254 4.72026 78.0213 4.48326 78.2123 4.28426C78.4043 4.08426 78.6524 3.98426 78.9594 3.98426H85.6934C85.9994 3.98426 86.2674 4.06126 86.4974 4.21426C86.7274 4.36826 86.8424 4.61326 86.8424 4.95026V37.1003C86.8424 37.4373 86.7424 37.6903 86.5424 37.8583C86.3444 38.0273 86.0834 38.1113 85.7624 38.1113H78.9594C78.6534 38.1113 78.4043 38.0273 78.2123 37.8583C78.0213 37.6903 77.9254 37.4383 77.9254 37.1003V24.0473H66.5043V37.1003C66.5043 37.4223 66.4004 37.6703 66.1944 37.8473C65.9874 38.0233 65.7073 38.1113 65.3543 38.1113H58.5984C57.9554 38.1113 57.6264 37.8123 57.6104 37.2153V4.99626ZM120.485 37.7213C120.286 37.8893 120.075 37.9963 119.853 38.0423C119.646 38.087 119.435 38.1104 119.222 38.1123H115.752C115.476 38.1123 115.238 38.0623 115.039 37.9623C114.839 37.8623 114.671 37.7283 114.533 37.5603C114.392 37.3857 114.276 37.1922 114.189 36.9853C114.097 36.7691 114.02 36.5465 113.959 36.3193L113.247 33.3773C113.017 33.8523 112.684 34.3923 112.247 34.9973C111.775 35.6393 111.214 36.2116 110.581 36.6973C109.907 37.2273 109.102 37.6713 108.168 38.0313C107.233 38.3913 106.161 38.5713 104.95 38.5713C103.204 38.5713 101.618 38.2343 100.193 37.5603C98.7982 36.9084 97.557 35.9684 96.5514 34.8023C95.5484 33.6383 94.7704 32.2783 94.2194 30.7223C93.6674 29.1683 93.3913 27.5093 93.3913 25.7483V10.6953C93.3913 10.1133 93.5184 9.67326 93.7714 9.37426C94.0234 9.07526 94.4253 8.92626 94.9773 8.92626H100.285C100.945 8.92626 101.396 9.03626 101.641 9.25926C101.886 9.48126 102.009 9.91426 102.009 10.5573V25.5173C102.009 26.1773 102.159 26.8013 102.457 27.3913C102.756 27.9813 103.15 28.5013 103.641 28.9533C104.131 29.4053 104.686 29.7623 105.307 30.0223C105.927 30.2823 106.559 30.4123 107.203 30.4123C107.754 30.4123 108.325 30.2823 108.915 30.0223C109.509 29.7589 110.059 29.4062 110.546 28.9763C111.044 28.5403 111.454 28.0263 111.776 27.4363C112.098 26.8463 112.258 26.2223 112.258 25.5643V10.6263C112.258 10.3663 112.308 10.1063 112.408 9.84526C112.508 9.58526 112.657 9.38526 112.856 9.24726C113.055 9.12526 113.243 9.04126 113.419 8.99526C113.595 8.94926 113.799 8.92526 114.028 8.92526H119.222C119.88 8.92526 120.355 9.08726 120.646 9.40826C120.937 9.73026 121.083 10.1593 121.083 10.6953V36.4113C121.083 36.7013 121.018 36.9703 120.888 37.2153C120.758 37.4603 120.578 37.6523 120.348 37.7893L120.485 37.7213V37.7213ZM147.166 34.5493C146.752 34.9633 146.296 35.4073 145.799 35.8823C145.301 36.3573 144.753 36.8023 144.156 37.2153C143.555 37.6309 142.908 37.9743 142.226 38.2383C141.515 38.5104 140.758 38.6468 139.996 38.6403C137.913 38.6403 135.994 38.2503 134.239 37.4683C132.529 36.7176 130.988 35.6268 129.712 34.2623C128.448 32.9063 127.46 31.3093 126.748 29.4703C126.035 27.6323 125.679 25.6563 125.679 23.5413C125.679 21.4113 126.035 19.4313 126.748 17.6013C127.46 15.7713 128.448 14.1773 129.712 12.8213C130.987 11.458 132.528 10.3709 134.239 9.62726C135.994 8.85326 137.913 8.46626 139.996 8.46626C140.839 8.46626 141.609 8.58926 142.306 8.83426C142.979 9.06727 143.62 9.38374 144.213 9.77626C144.788 10.1593 145.316 10.5923 145.799 11.0743C146.281 11.5573 146.737 12.0283 147.166 12.4883V1.98526C147.166 1.49526 147.316 1.08226 147.614 0.745258C147.913 0.407258 148.361 0.239258 148.959 0.239258H154.129C154.329 0.239258 154.539 0.281258 154.761 0.365258C154.983 0.450258 155.186 0.568258 155.371 0.722258C155.554 0.875258 155.703 1.05926 155.818 1.27326C155.933 1.48826 155.991 1.72526 155.991 1.98526V36.3423C155.991 37.5223 155.371 38.1123 154.129 38.1123H149.625C149.319 38.1123 149.081 38.0723 148.913 37.9963C148.746 37.9214 148.6 37.8071 148.487 37.6633C148.359 37.4946 148.255 37.3092 148.177 37.1123C148.069 36.8528 147.954 36.5961 147.833 36.3423L147.166 34.5493V34.5493ZM133.952 23.5413C133.945 24.5077 134.104 25.4681 134.423 26.3803C134.737 27.2603 135.185 28.0233 135.768 28.6663C136.357 29.3143 137.072 29.8344 137.87 30.1943C138.69 30.5703 139.598 30.7573 140.594 30.7573C141.574 30.7573 142.497 30.5813 143.363 30.2293C144.204 29.8923 144.973 29.3967 145.626 28.7693C146.276 28.1409 146.802 27.3969 147.178 26.5753C147.568 25.7323 147.787 24.8283 147.833 23.8633V23.5413C147.837 22.5796 147.649 21.6268 147.281 20.7383C146.925 19.8672 146.407 19.0717 145.753 18.3943C145.098 17.7176 144.318 17.1751 143.455 16.7973C142.554 16.4023 141.579 16.2026 140.594 16.2113C139.598 16.2113 138.69 16.4063 137.87 16.7973C137.05 17.1873 136.35 17.7203 135.768 18.3943C135.177 19.0842 134.721 19.8794 134.423 20.7383C134.108 21.6389 133.949 22.5869 133.953 23.5413H133.952ZM182.672 34.5493C182.258 34.9633 181.802 35.4073 181.304 35.8823C180.806 36.3573 180.258 36.8023 179.661 37.2153C179.06 37.6309 178.413 37.9743 177.731 38.2383C177.02 38.5104 176.263 38.6468 175.501 38.6403C173.418 38.6403 171.499 38.2503 169.745 37.4683C168.034 36.7177 166.494 35.6269 165.217 34.2623C163.954 32.9063 162.965 31.3093 162.253 29.4703C161.541 27.6323 161.184 25.6563 161.184 23.5413C161.184 21.4113 161.541 19.4313 162.253 17.6013C162.965 15.7713 163.953 14.1773 165.217 12.8213C166.492 11.4579 168.033 10.3708 169.745 9.62726C171.499 8.85326 173.418 8.46626 175.501 8.46626C176.344 8.46626 177.114 8.58926 177.811 8.83426C178.484 9.06727 179.125 9.38374 179.718 9.77626C180.293 10.1593 180.821 10.5923 181.304 11.0743C181.787 11.5573 182.242 12.0283 182.671 12.4883V1.98526C182.671 1.49526 182.821 1.08226 183.119 0.745258C183.419 0.407258 183.866 0.239258 184.464 0.239258H189.634C189.834 0.239258 190.044 0.281258 190.266 0.365258C190.489 0.450258 190.692 0.568258 190.876 0.722258C191.059 0.875258 191.209 1.05926 191.324 1.27326C191.438 1.48826 191.496 1.72526 191.496 1.98526V36.3423C191.496 37.5223 190.876 38.1123 189.634 38.1123H185.13C184.824 38.1123 184.586 38.0723 184.418 37.9963C184.252 37.9212 184.106 37.807 183.993 37.6633C183.865 37.4946 183.761 37.3092 183.683 37.1123C183.575 36.8528 183.46 36.5961 183.338 36.3423L182.671 34.5493H182.672ZM169.457 23.5413C169.45 24.5077 169.609 25.4681 169.928 26.3803C170.243 27.2603 170.691 28.0233 171.273 28.6663C171.862 29.3144 172.578 29.8345 173.376 30.1943C174.196 30.5703 175.103 30.7573 176.099 30.7573C177.079 30.7573 178.002 30.5813 178.868 30.2293C179.71 29.8925 180.478 29.3968 181.132 28.7693C181.781 28.1408 182.307 27.3967 182.682 26.5753C183.073 25.7323 183.292 24.8283 183.338 23.8633V23.5413C183.342 22.5796 183.154 21.6268 182.786 20.7383C182.43 19.8672 181.912 19.0717 181.258 18.3943C180.603 17.7176 179.823 17.1751 178.96 16.7973C178.059 16.4023 177.084 16.2026 176.099 16.2113C175.103 16.2113 174.195 16.4063 173.376 16.7973C172.556 17.1873 171.855 17.7203 171.273 18.3943C170.682 19.0842 170.226 19.8794 169.928 20.7383C169.613 21.6389 169.454 22.5869 169.458 23.5413H169.457ZM197.61 2.00826C197.61 1.51826 197.732 1.10526 197.977 0.768258C198.223 0.430258 198.644 0.262258 199.241 0.262258H204.871C205.025 0.262258 205.186 0.304258 205.354 0.388258C205.531 0.478845 205.69 0.599671 205.825 0.745258C205.971 0.898258 206.093 1.08226 206.193 1.29626C206.293 1.51126 206.343 1.74826 206.343 2.00826V36.3423C206.343 36.9243 206.178 37.3643 205.848 37.6633C205.519 37.9623 205.094 38.1113 204.573 38.1113H199.241C198.644 38.1113 198.223 37.9613 197.977 37.6633C197.732 37.3643 197.61 36.9233 197.61 36.3423V2.00826ZM236.31 34.6183C234.978 35.8492 233.437 36.8335 231.76 37.5253C230.062 38.225 228.242 38.5806 226.405 38.5713C224.305 38.5713 222.322 38.1883 220.453 37.4213C218.627 36.6829 216.957 35.603 215.535 34.2393C214.119 32.873 212.979 31.2458 212.18 29.4473C211.352 27.6093 210.939 25.6103 210.939 23.4493C210.939 22.1013 211.103 20.7953 211.433 19.5313C211.752 18.2945 212.223 17.1021 212.835 15.9813C213.441 14.8781 214.182 13.8551 215.041 12.9363C215.899 12.0159 216.877 11.2156 217.948 10.5573C219.039 9.89041 220.214 9.37248 221.441 9.01726C222.733 8.6448 224.072 8.45925 225.416 8.46626C226.688 8.46626 227.921 8.63526 229.116 8.97226C230.311 9.30926 231.434 9.78426 232.483 10.3963C233.533 11.0093 234.493 11.7453 235.367 12.6033C236.229 13.447 236.985 14.3922 237.619 15.4183C238.248 16.4368 238.739 17.534 239.079 18.6813C239.423 19.8383 239.596 21.0293 239.596 22.2543C239.596 23.0513 239.584 23.7023 239.561 24.2083C239.538 24.7133 239.419 25.1163 239.205 25.4143C238.99 25.7143 238.635 25.9203 238.136 26.0343C237.638 26.1503 236.906 26.2073 235.942 26.2073H219.396C219.549 27.1873 219.859 28.0073 220.326 28.6673C220.759 29.292 221.309 29.8263 221.946 30.2403C222.559 30.6313 223.21 30.9103 223.9 31.0803C224.539 31.242 225.195 31.3266 225.853 31.3323C226.405 31.3323 226.971 31.2743 227.553 31.1603C228.127 31.0477 228.692 30.894 229.243 30.7003C229.759 30.521 230.259 30.2978 230.736 30.0333C231.188 29.7813 231.552 29.5163 231.828 29.2413C232.073 29.0413 232.284 28.8923 232.46 28.7923C232.636 28.6923 232.824 28.6433 233.023 28.6433C233.223 28.6433 233.425 28.7133 233.633 28.8503C233.885 29.0264 234.12 29.2263 234.333 29.4473L236.769 32.2053C236.937 32.4053 237.045 32.5853 237.091 32.7453C237.137 32.9063 237.16 33.0713 237.16 33.2393C237.16 33.5463 237.075 33.8103 236.907 34.0323C236.738 34.2556 236.536 34.453 236.309 34.6183H236.31ZM225.256 15.4753C224.658 15.4753 224.08 15.5943 223.521 15.8313C222.954 16.0735 222.424 16.3946 221.946 16.7853C221.456 17.1833 221.016 17.6353 220.625 18.1413C220.252 18.6183 219.932 19.1347 219.671 19.6813H231.414C231.106 19.1051 230.757 18.552 230.369 18.0263C230.001 17.5275 229.568 17.0793 229.082 16.6933C228.586 16.3027 228.026 15.9997 227.427 15.7973C226.807 15.5823 226.083 15.4753 225.256 15.4753Z" fill="white"/>
</svg>
